HIERARCHY
ROOT root
{
	OFFSET 0.000000 0.000000 0.000000
	CHANNELS 6 Xposition Yposition Zposition Zrotation Yrotation Xrotation
	JOINT lhip
	{
		OFFSET 0.058581 -0.082280 -0.017664
		CHANNELS 3 Zrotation Yrotation Xrotation
		JOINT lknee
		{
			OFFSET 0.043451 -0.386469 0.008037
			CHANNELS 3 Zrotation Yrotation Xrotation
			JOINT lankle
			{
				OFFSET -0.014790 -0.426874 -0.037428
				CHANNELS 3 Zrotation Yrotation Xrotation
				JOINT ltoe
				{
					OFFSET 0.041054 -0.060286 0.122042
					CHANNELS 3 Zrotation Yrotation Xrotation
					End Site
					{
						OFFSET 0.000000 0.000000 0.000000
					}
				}
			}
		}
	}
	JOINT rhip
	{
		OFFSET -0.060310 -0.090513 -0.013543
		CHANNELS 3 Zrotation Yrotation Xrotation
		JOINT rknee
		{
			OFFSET -0.043257 -0.383688 -0.004843
			CHANNELS 3 Zrotation Yrotation Xrotation
			JOINT rankle
			{
				OFFSET 0.019056 -0.420046 -0.034562
				CHANNELS 3 Zrotation Yrotation Xrotation
				JOINT rtoe
				{
					OFFSET -0.034840 -0.062106 0.130323
					CHANNELS 3 Zrotation Yrotation Xrotation
					End Site
					{
						OFFSET 0.000000 0.000000 0.000000
					}
				}
			}
		}
	}
	JOINT lowerback
	{
		OFFSET 0.004439 0.124404 -0.038385
		CHANNELS 3 Zrotation Yrotation Xrotation
		JOINT upperback
		{
			OFFSET 0.004488 0.137956 0.026820
			CHANNELS 3 Zrotation Yrotation Xrotation
			JOINT chest
			{
				OFFSET -0.002265 0.056032 0.002855
				CHANNELS 3 Zrotation Yrotation Xrotation
				JOINT lowerneck
				{
					OFFSET -0.013390 0.211636 -0.033468
					CHANNELS 3 Zrotation Yrotation Xrotation
					JOINT upperneck
					{
						OFFSET 0.010113 0.088937 0.050410
						CHANNELS 3 Zrotation Yrotation Xrotation
						End Site
						{
							OFFSET 0.000000 0.000000 0.000000
						}
					}
				}
				JOINT lclavicle
				{
					OFFSET 0.071702 0.114000 -0.018898
					CHANNELS 3 Zrotation Yrotation Xrotation
					JOINT lshoulder
					{
						OFFSET 0.122921 0.045205 -0.019046
						CHANNELS 3 Zrotation Yrotation Xrotation
						JOINT lelbow
						{
							OFFSET 0.255332 -0.015649 -0.022946
							CHANNELS 3 Zrotation Yrotation Xrotation
							JOINT lwrist
							{
								OFFSET 0.265709 0.012698 -0.007375
								CHANNELS 3 Zrotation Yrotation Xrotation
								End Site
								{
									OFFSET 0.000000 0.000000 0.000000
								}
							}
						}
					}
				}
				JOINT rclavicle
				{
					OFFSET -0.082954 0.112472 -0.023707
					CHANNELS 3 Zrotation Yrotation Xrotation
					JOINT rshoulder
					{
						OFFSET -0.113228 0.046853 -0.008472
						CHANNELS 3 Zrotation Yrotation Xrotation
						JOINT relbow
						{
							OFFSET -0.260127 -0.014369 -0.031269
							CHANNELS 3 Zrotation Yrotation Xrotation
							JOINT rwrist
							{
								OFFSET -0.269108 0.006794 -0.006027
								CHANNELS 3 Zrotation Yrotation Xrotation
								End Site
								{
									OFFSET 0.000000 0.000000 0.000000
								}
							}
						}
					}
				}
			}
		}
	}
}
MOTION
Frames: 5
Frame Time: 0.033333
1.189367 0.640152 0.885058 -81.073336 6.984000 87.148306 1.827526 -13.756291 -34.747336 -15.459834 -6.521870 56.930716 7.300794 2.779626 -29.796259 0.000000 -0.000000 0.000000 3.836413 -0.509630 -23.753162 -9.100966 -9.615829 53.672343 -0.807982 -21.372340 -30.008501 0.000000 -0.000000 0.000000 -5.870029 11.449337 26.201760 3.225762 -3.691082 -1.748547 2.274446 -0.999888 4.848933 -0.343010 4.425992 -21.098878 14.356432 -17.663038 -19.636989 3.495232 -23.578235 -15.097027 -18.306561 -36.504291 -5.020662 15.962974 -56.941327 -9.374796 -18.308671 -1.582298 -14.963230 12.047502 13.904624 -2.389055 61.589986 -3.707700 22.121754 -108.435636 77.436193 -78.031490 0.622302 -3.254478 -22.995978 
1.191327 0.628058 0.893955 -78.026115 6.862272 88.972527 2.443181 -14.911172 -35.838924 -17.041876 -6.061536 53.633072 5.577985 1.405272 -27.266962 0.000000 -0.000000 0.000000 2.430328 0.397706 -23.405553 -7.829649 -10.403641 49.911917 -0.923215 -23.587713 -28.056155 0.000000 -0.000000 0.000000 -4.072125 10.455162 25.398663 3.073174 -3.910247 -3.244862 1.584611 0.001626 4.826160 -0.049984 3.181349 -19.612181 14.374758 -18.180984 -21.098283 0.371991 -21.324399 -12.847496 -19.556021 -28.806001 -3.679582 10.970285 -50.227467 -2.564798 -15.621624 -0.372764 -9.226602 12.978774 13.003171 -1.483143 60.746345 -3.143270 21.760697 -128.790717 77.785632 -98.557897 -11.639731 -5.554734 -23.443113 
1.189755 0.609345 0.918435 -75.679324 6.606831 88.975904 0.076218 -13.811873 -30.898912 -16.602445 -9.431364 46.404455 3.359703 -0.107970 -25.159094 0.000000 -0.000000 0.000000 0.974840 -0.375555 -18.406130 -7.680015 -12.667864 42.173881 -0.521459 -22.462755 -24.854254 0.000000 -0.000000 0.000000 -1.968374 9.731268 23.970490 2.757448 -4.143652 -2.381116 0.991016 0.151559 4.757514 0.805379 1.626219 -19.238150 13.277519 -18.056168 -20.059682 -2.578170 -17.874463 -11.730513 -24.175973 -24.012225 -0.182964 5.201689 -44.125132 -0.852919 -20.019682 2.126012 -7.021674 13.812106 10.532182 -3.008974 60.152559 -3.922647 23.141034 -150.082993 76.025440 -120.770784 -2.149814 -3.018661 -21.010625 
1.185532 0.587950 0.949175 -76.270330 5.304719 89.197566 -1.874691 -10.126228 -24.504047 -13.214857 -9.300398 34.973935 0.053428 0.503693 -23.437333 0.000000 -0.000000 0.000000 -0.307236 -1.221797 -13.914044 -8.116916 -12.540926 32.573579 0.574249 -20.592499 -22.590864 0.000000 -0.000000 0.000000 -1.339268 9.268939 21.087342 1.286302 -3.645258 -1.912955 0.236140 0.642256 4.049298 0.615610 -0.611029 -15.398499 13.236758 -17.692107 -18.956876 -6.341169 -16.160318 -9.744033 -27.711433 -19.671031 2.371838 -1.193341 -33.683073 5.142132 -17.659390 5.037047 -1.883415 14.396927 9.372179 -2.498901 60.625762 -4.315178 25.049288 -177.777274 77.168997 -149.214006 -5.976420 -3.136318 -22.602823 
1.184484 0.569210 0.976509 -78.674718 3.821354 90.809709 -2.658123 -6.455189 -21.216517 -4.311962 0.775474 25.818557 2.275984 12.007186 -23.919803 0.000000 -0.000000 0.000000 -1.326017 -1.476412 -14.263443 -7.935526 -10.911266 27.939955 1.602357 -20.586841 -23.129142 0.000000 -0.000000 0.000000 -3.023404 9.193758 17.660435 0.245168 -2.859173 -2.480059 -0.180222 1.191221 3.376305 1.398691 -2.311712 -13.767748 13.521753 -17.939650 -16.952858 -9.428629 -14.831241 -6.830943 -31.133888 -17.983744 3.325335 -3.802280 -18.543754 8.478278 -14.547021 6.233553 6.388782 16.558259 8.491506 -0.966249 61.527714 -3.002392 27.013348 163.245435 79.849423 -169.988882 -7.775693 -1.735128 -24.961885 
